<svg xmlns="http://www.w3.org/2000/svg" width="64" height="64" viewBox="0 0 64 64" fill="none" stroke="#1B1B19" stroke-width="3.2" stroke-linecap="round" stroke-linejoin="round"><title>Stay rooted</title><path d="M24 48 C26 33 30 17 35 10 C39 5 44 8 42 15 L32 48 M30 31 C21 27 20 20 22 17 M35 28 Q44 25 46 18 M26 50 Q14 51 12 57 Q29 62 43 57 Q39 50 31 48 M35 17 L29 43" /><path d="M28 31 C18 26 18 17 23 14 C27 13 26 20 25 23 Z" fill="#1B1B19" stroke="none"/><path d="M46 34 Q53 30 55 24 M44 43 Q52 42 57 36" stroke="#008ED1"/></svg>