<svg xmlns="http://www.w3.org/2000/svg" width="660" height="340" viewBox="20 40 660 340" role="img"><title>The Capptus Way — primary side-by-side lockup — white and sand negative</title><g transform="translate(22 38) scale(1)"><path d="M74 259 C25 226 19 161 38 111 C60 53 116 25 174 37 C231 48 273 93 274 151 C275 196 255 232 229 253" fill="none" stroke="#FFFFFF" stroke-width="10" stroke-linecap="round" stroke-linejoin="round"/><path d="M117 227 L117 163 C88 162 72 146 73 124 L73 115 C74 98 93 98 95 114 L96 126 C98 136 105 142 117 142 L118 91 C118 61 154 61 155 91 L156 169 C178 166 190 151 190 132 L190 124 C190 105 211 105 212 124 L212 136 C212 166 192 187 156 189 L156 225" fill="none" stroke="#FFFFFF" stroke-width="9" stroke-linecap="round" stroke-linejoin="round"/><path d="M137 96 C135 134 136 179 137 211" fill="none" stroke="#FFFFFF" stroke-width="6" stroke-linecap="round" stroke-linejoin="round"/><path d="M117 163 C88 162 72 146 73 124 L73 115 C74 98 93 98 95 114 L96 126 C98 136 105 142 117 142Z" fill="#FFFFFF"/><path d="M57 240 C89 231 122 246 153 240 C183 234 207 235 243 245" fill="none" stroke="#D8C5AB" stroke-width="10" stroke-linecap="round" stroke-linejoin="round"/><path d="M82 264 C124 291 186 291 222 260" fill="none" stroke="#D8C5AB" stroke-width="10" stroke-linecap="round" stroke-linejoin="round"/><circle cx="205" cy="86" r="13" fill="#D8C5AB"/></g><path transform="translate(341 112) scale(1 -1)" d="M16.588 18.200L16.449 12.584L15.219 12.584Q15.279 14.075 15.006 15.058Q14.733 16.042 14.044 16.532Q13.355 17.021 12.125 16.995L10.235 16.978L9.455 3.484Q9.429 2.782 9.369 2.227Q9.308 1.673 9.256 1.335Q9.594 1.361 9.975 1.374Q10.357 1.387 10.721 1.408Q11.085 1.430 11.388 1.430L11.319 0.000L4.801 0.000L4.871 1.144Q5.642 1.187 6.032 1.508Q6.422 1.829 6.591 2.461Q6.760 3.094 6.812 4.030L7.566 16.969L5.382 16.952Q3.796 16.943 3.003 15.886Q2.210 14.829 2.089 12.584L0.875 12.584L1.317 18.200ZM27.898 -0.286Q26.607 -0.286 26.139 0.407Q25.671 1.101 25.671 2.357Q25.671 3.103 25.783 4.095Q25.896 5.087 26.030 6.171Q26.165 7.254 26.277 8.316Q26.390 9.377 26.390 10.253Q26.390 10.591 26.295 10.916Q26.199 11.241 25.974 11.457Q25.749 11.674 25.315 11.674Q24.691 11.674 24.054 11.059Q23.417 10.443 22.832 9.390Q22.247 8.337 21.784 7.016Q21.320 5.694 21.056 4.286Q20.791 2.877 20.791 1.543Q20.791 1.170 20.809 0.750Q20.826 0.329 20.852 0.000L18.321 0.000Q18.287 0.303 18.282 0.472Q18.278 0.641 18.278 0.867Q18.278 1.759 18.347 3.211Q18.417 4.663 18.529 6.392Q18.642 8.121 18.789 9.889Q18.937 11.657 19.097 13.234Q19.257 14.811 19.413 15.921Q19.500 16.519 19.556 16.883Q19.613 17.247 19.682 17.645L17.862 17.550L17.966 18.902Q19.136 18.902 19.829 19.015Q20.523 19.127 20.904 19.292Q21.285 19.457 21.485 19.630L22.455 19.630Q22.360 18.945 22.230 18.061Q22.100 17.177 21.974 16.332Q21.849 15.487 21.771 14.915Q21.710 14.413 21.615 13.550Q21.519 12.688 21.407 11.691Q21.294 10.695 21.194 9.746Q21.095 8.797 21.008 8.112L21.069 8.112Q21.857 10.209 22.681 11.327Q23.504 12.445 24.336 12.866Q25.168 13.286 25.965 13.286Q27.560 13.286 28.245 12.259Q28.929 11.232 28.929 9.698Q28.929 8.433 28.756 7.055Q28.583 5.677 28.405 4.455Q28.227 3.233 28.227 2.409Q28.227 1.959 28.344 1.673Q28.461 1.387 28.825 1.387Q29.215 1.387 29.675 1.907Q30.134 2.427 30.507 3.753L31.408 3.493Q31.321 3.016 31.066 2.366Q30.810 1.716 30.377 1.114Q29.943 0.511 29.328 0.113Q28.713 -0.286 27.898 -0.286ZM39.000 13.286Q40.005 13.286 40.855 12.983Q41.704 12.679 42.215 12.003Q42.727 11.327 42.727 10.201Q42.727 9.135 42.029 8.368Q41.331 7.601 40.209 7.107Q39.087 6.613 37.795 6.305Q36.504 5.997 35.308 5.859Q35.308 4.290 35.642 3.298Q35.975 2.305 36.591 1.842Q37.206 1.378 38.064 1.378Q38.714 1.378 39.429 1.660Q40.144 1.941 40.820 2.583Q41.496 3.224 42.033 4.307L43.091 3.744Q42.363 2.279 41.505 1.387Q40.647 0.494 39.659 0.104Q38.671 -0.286 37.535 -0.286Q35.091 -0.295 33.843 1.205Q32.595 2.704 32.595 5.347Q32.595 6.769 32.985 8.181Q33.375 9.594 34.160 10.747Q34.944 11.899 36.157 12.593Q37.371 13.286 39.000 13.286ZM38.662 12.125Q37.570 12.125 36.877 11.379Q36.183 10.634 35.819 9.468Q35.455 8.303 35.351 7.046Q36.738 7.254 37.847 7.713Q38.957 8.173 39.620 8.857Q40.283 9.542 40.274 10.409Q40.265 11.180 39.841 11.652Q39.416 12.125 38.662 12.125Z" fill="#FFFFFF"/><path transform="translate(335 197) scale(0.98 -0.98)" d="M40.392 32.414Q39.644 38.556 36.165 41.865Q32.686 45.174 27.154 45.198Q23.574 45.198 20.582 43.634Q17.590 42.070 15.425 39.259Q13.260 36.448 12.070 32.617Q10.880 28.786 10.880 24.208Q10.880 17.998 13.067 13.226Q15.254 8.454 19.085 5.780Q22.916 3.106 27.790 3.106Q32.164 3.106 36.425 5.180Q40.686 7.254 43.452 11.106L45.718 9.158Q42.658 4.964 39.168 2.731Q35.678 0.498 32.266 -0.295Q28.854 -1.088 26.066 -1.088Q20.922 -1.088 16.660 0.759Q12.398 2.606 9.304 5.904Q6.210 9.202 4.544 13.588Q2.878 17.974 2.878 23.074Q2.878 27.834 4.352 32.390Q5.826 36.946 8.761 40.630Q11.696 44.314 16.161 46.501Q20.626 48.688 26.542 48.688Q29.966 48.688 33.286 47.725Q36.606 46.762 39.622 44.812L39.304 48.212L43.498 48.212L43.498 32.414ZM70.289 0.000Q70.108 1.088 70.052 1.893Q69.995 2.698 69.881 3.626Q67.569 1.314 64.917 0.113Q62.265 -1.088 59.387 -1.088Q54.491 -1.088 51.998 1.337Q49.504 3.762 49.504 7.322Q49.504 10.494 51.352 12.784Q53.199 15.074 56.180 16.536Q59.160 17.998 62.708 18.734Q66.255 19.470 69.655 19.470L69.655 23.460Q69.655 25.636 69.236 27.517Q68.816 29.398 67.558 30.577Q66.300 31.756 63.671 31.778Q61.925 31.802 60.135 31.099Q58.344 30.396 57.415 28.786Q57.959 28.220 58.118 27.506Q58.276 26.792 58.276 26.202Q58.276 25.206 57.460 24.016Q56.644 22.826 54.717 22.894Q53.085 22.916 52.224 24.027Q51.363 25.138 51.363 26.656Q51.363 29.104 53.165 30.997Q54.967 32.890 58.095 33.989Q61.223 35.088 65.121 35.088Q70.924 35.088 73.837 32.039Q76.749 28.990 76.704 22.372Q76.704 19.924 76.704 17.680Q76.704 15.436 76.670 13.192Q76.636 10.948 76.636 8.454Q76.636 7.412 76.568 6.109Q76.500 4.806 76.364 3.378Q77.565 3.468 78.789 3.525Q80.013 3.582 81.056 3.626L81.056 0.000ZM69.632 16.320Q67.456 16.206 65.190 15.708Q62.923 15.210 61.076 14.258Q59.228 13.306 58.106 11.810Q56.984 10.314 57.029 8.250Q57.143 5.938 58.548 4.828Q59.953 3.718 61.857 3.718Q64.237 3.718 66.073 4.647Q67.909 5.576 69.632 7.208Q69.587 7.934 69.587 8.738Q69.587 9.542 69.587 10.404Q69.587 11.038 69.610 12.682Q69.632 14.326 69.632 16.320ZM84.842 -17.340L84.842 -14.506Q86.882 -14.506 87.709 -13.554Q88.536 -12.602 88.706 -10.891Q88.876 -9.180 88.876 -6.958L88.966 24.526Q88.966 25.658 89.012 26.894Q89.058 28.130 89.238 29.398Q88.060 29.330 86.768 29.274Q85.476 29.218 84.410 29.150L84.410 32.776Q87.470 32.776 89.204 33.071Q90.938 33.366 91.834 33.796Q92.730 34.226 93.206 34.680L95.676 34.680Q95.766 34.000 95.834 33.059Q95.902 32.118 95.970 31.144Q98.124 33.048 100.787 34.068Q103.450 35.088 106.058 35.088Q110.046 35.088 113.344 33.025Q116.642 30.962 118.626 27.154Q120.610 23.346 120.610 18.110Q120.610 12.444 118.298 8.103Q115.986 3.762 112.098 1.337Q108.210 -1.088 103.428 -1.088Q101.230 -1.088 99.405 -0.578Q97.580 -0.068 95.970 0.816L95.970 -8.886Q95.970 -10.110 95.936 -11.390Q95.902 -12.670 95.722 -13.962Q96.810 -13.872 97.943 -13.838Q99.076 -13.804 100.028 -13.758L100.028 -17.340ZM102.974 2.426Q106.194 2.448 108.336 4.386Q110.478 6.324 111.543 9.633Q112.608 12.942 112.608 17.046Q112.608 20.536 111.656 23.709Q110.704 26.882 108.641 28.866Q106.578 30.850 103.202 30.826Q101.094 30.804 99.190 29.795Q97.286 28.786 96.016 27.290Q96.016 26.406 96.039 25.375Q96.062 24.344 96.062 22.825Q96.062 21.306 96.062 18.960Q96.062 16.614 96.039 13.112Q96.016 9.610 96.016 4.602Q97.398 3.582 99.189 2.992Q100.980 2.402 102.974 2.426ZM125.528 -17.340L125.528 -14.506Q127.568 -14.506 128.396 -13.554Q129.223 -12.602 129.393 -10.891Q129.563 -9.180 129.563 -6.958L129.653 24.526Q129.653 25.658 129.699 26.894Q129.744 28.130 129.925 29.398Q128.747 29.330 127.455 29.274Q126.163 29.218 125.097 29.150L125.097 32.776Q128.157 32.776 129.891 33.071Q131.625 33.366 132.521 33.796Q133.416 34.226 133.892 34.680L136.363 34.680Q136.453 34.000 136.521 33.059Q136.589 32.118 136.657 31.144Q138.811 33.048 141.474 34.068Q144.137 35.088 146.744 35.088Q150.733 35.088 154.031 33.025Q157.329 30.962 159.313 27.154Q161.296 23.346 161.296 18.110Q161.296 12.444 158.984 8.103Q156.672 3.762 152.785 1.337Q148.897 -1.088 144.115 -1.088Q141.916 -1.088 140.092 -0.578Q138.267 -0.068 136.657 0.816L136.657 -8.886Q136.657 -10.110 136.623 -11.390Q136.589 -12.670 136.408 -13.962Q137.496 -13.872 138.630 -13.838Q139.763 -13.804 140.715 -13.758L140.715 -17.340ZM143.661 2.426Q146.880 2.448 149.022 4.386Q151.164 6.324 152.230 9.633Q153.295 12.942 153.295 17.046Q153.295 20.536 152.343 23.709Q151.391 26.882 149.328 28.866Q147.265 30.850 143.888 30.826Q141.780 30.804 139.876 29.795Q137.972 28.786 136.703 27.290Q136.703 26.406 136.726 25.375Q136.748 24.344 136.748 22.825Q136.748 21.306 136.748 18.960Q136.748 16.614 136.726 13.112Q136.703 9.610 136.703 4.602Q138.085 3.582 139.876 2.992Q141.667 2.402 143.661 2.426ZM179.860 -1.088Q178.137 -1.088 176.414 -0.635Q174.692 -0.182 173.264 1.122Q171.836 2.426 170.997 4.942Q170.159 7.458 170.159 11.606L170.295 30.214L165.263 30.170L165.263 34.000Q167.144 34.068 169.025 35.360Q170.907 36.652 172.346 38.828Q173.785 41.004 174.307 43.520L177.525 43.520L177.503 34.000L187.997 34.000L187.997 30.486L177.503 30.328L177.389 12.150Q177.389 9.588 177.831 7.650Q178.273 5.712 179.338 4.658Q180.404 3.604 182.195 3.604Q183.781 3.604 185.447 4.556Q187.113 5.508 188.609 7.684L190.921 5.666Q189.312 3.264 187.680 1.904Q186.048 0.544 184.540 -0.113Q183.033 -0.770 181.809 -0.929Q180.585 -1.088 179.860 -1.088ZM208.012 -1.088Q204.204 -1.088 201.722 0.340Q199.240 1.768 198.027 5.055Q196.815 8.342 196.815 13.804L196.815 24.480Q196.815 25.614 196.860 26.872Q196.905 28.130 197.064 29.398Q195.931 29.330 194.650 29.296Q193.369 29.262 192.349 29.194L192.349 32.776L193.981 32.776Q197.336 32.776 199.036 33.388Q200.736 34.000 201.461 34.680L204.023 34.680L204.023 13.918Q204.023 8.546 205.519 5.905Q207.015 3.264 210.528 3.310Q212.840 3.354 215.005 4.703Q217.169 6.052 218.507 7.888L218.507 23.982Q218.507 25.478 218.575 26.804Q218.643 28.130 218.824 29.398Q217.645 29.330 216.342 29.296Q215.039 29.262 213.973 29.194L213.973 32.776L215.923 32.776Q218.937 32.776 220.637 33.399Q222.337 34.022 223.063 34.680L225.624 34.680L225.579 9.634Q225.579 8.590 225.511 6.698Q225.443 4.806 225.307 3.378Q226.485 3.468 227.743 3.525Q229.001 3.582 230.044 3.626L230.044 0.000L219.255 0.000Q219.096 1.066 218.994 2.040Q218.892 3.014 218.801 3.898Q216.693 1.904 213.894 0.408Q211.095 -1.088 208.012 -1.088ZM249.333 -1.088Q246.092 -1.088 243.395 -0.227Q240.697 0.634 239.043 1.790L239.269 -0.476L235.643 -0.476L235.280 11.220L238.159 11.220Q238.317 8.682 239.745 6.642Q241.173 4.602 243.440 3.457Q245.707 2.312 248.381 2.312Q249.945 2.312 251.430 2.811Q252.915 3.310 253.923 4.364Q254.932 5.418 254.932 7.026Q254.932 8.726 253.878 9.837Q252.824 10.948 251.022 11.832Q249.220 12.716 246.953 13.578Q244.891 14.394 242.817 15.278Q240.743 16.162 238.986 17.397Q237.229 18.632 236.187 20.434Q235.144 22.236 235.144 24.866Q235.144 26.474 235.756 28.254Q236.368 30.034 237.751 31.586Q239.133 33.138 241.434 34.113Q243.735 35.088 247.157 35.088Q248.993 35.088 251.271 34.487Q253.549 33.886 255.499 32.368L255.408 34.748L259.035 34.748L259.035 22.802L256.111 22.802Q255.884 25.182 254.830 27.222Q253.776 29.262 251.895 30.543Q250.013 31.824 247.248 31.824Q244.596 31.824 242.953 30.509Q241.309 29.194 241.309 27.178Q241.309 25.250 242.556 24.015Q243.803 22.780 245.843 21.896Q247.883 21.012 250.240 20.106Q253.119 18.994 255.646 17.612Q258.173 16.230 259.737 14.201Q261.301 12.172 261.301 9.066Q261.301 5.622 259.556 3.355Q257.811 1.088 255.079 0.000Q252.348 -1.088 249.333 -1.088Z" fill="#FFFFFF"/><path transform="translate(337 277) scale(0.98 -0.98)" d="M19.062 -0.590L6.914 35.746Q5.916 38.806 5.338 40.732Q4.760 42.658 4.534 44.018Q3.468 43.950 2.505 43.939Q1.542 43.928 0.612 43.860L0.612 47.600L18.314 47.600L18.314 44.608Q14.846 44.494 13.928 43.112Q13.010 41.730 14.030 37.966Q15.142 33.682 16.388 29.988Q17.634 26.294 18.836 22.236Q19.674 19.426 20.502 17.023Q21.330 14.620 22.214 11.402L22.326 11.402Q22.644 12.490 23.075 14.008Q23.506 15.526 23.993 17.102Q24.480 18.678 24.877 20.004Q25.274 21.330 25.478 22.032Q27.110 27.222 28.708 32.164Q30.306 37.106 31.609 41.140Q32.912 45.174 33.614 47.690L37.106 47.690Q37.830 45.152 38.930 41.797Q40.030 38.442 41.208 34.861Q42.386 31.280 43.463 27.971Q44.540 24.662 45.310 22.258Q46.194 19.448 47.090 16.626Q47.986 13.804 48.756 10.834L48.914 10.834Q49.526 12.874 50.218 15.152Q50.910 17.430 51.634 19.810Q52.972 23.754 53.879 26.610Q54.786 29.466 55.420 31.563Q56.054 33.660 56.553 35.360Q57.052 37.060 57.574 38.692Q57.982 40.006 58.548 41.468Q59.114 42.930 59.908 44.064Q58.638 43.996 57.165 43.962Q55.692 43.928 54.536 43.860L54.536 47.600L68.838 47.600L68.838 44.608Q66.798 44.404 65.472 43.667Q64.146 42.930 63.104 41.049Q62.062 39.168 60.814 35.474Q57.822 26.294 54.921 17.318Q52.020 8.342 48.960 -0.590L45.582 -0.590L36.018 27.200Q35.314 29.262 34.736 31.246Q34.158 33.230 33.570 35.134Q33.094 33.230 32.550 31.382Q32.006 29.534 31.416 27.630L22.350 -0.590ZM87.788 0.000Q87.607 1.088 87.550 1.893Q87.493 2.698 87.380 3.626Q85.068 1.314 82.416 0.113Q79.764 -1.088 76.885 -1.088Q71.989 -1.088 69.496 1.337Q67.003 3.762 67.003 7.322Q67.003 10.494 68.850 12.784Q70.697 15.074 73.678 16.536Q76.659 17.998 80.206 18.734Q83.753 19.470 87.153 19.470L87.153 23.460Q87.153 25.636 86.734 27.517Q86.315 29.398 85.057 30.577Q83.799 31.756 81.169 31.778Q79.424 31.802 77.633 31.099Q75.843 30.396 74.913 28.786Q75.457 28.220 75.616 27.506Q75.775 26.792 75.775 26.202Q75.775 25.206 74.959 24.016Q74.143 22.826 72.216 22.894Q70.584 22.916 69.723 24.027Q68.861 25.138 68.861 26.656Q68.861 29.104 70.663 30.997Q72.465 32.890 75.593 33.989Q78.721 35.088 82.620 35.088Q88.423 35.088 91.335 32.039Q94.248 28.990 94.203 22.372Q94.203 19.924 94.203 17.680Q94.203 15.436 94.169 13.192Q94.135 10.948 94.135 8.454Q94.135 7.412 94.067 6.109Q93.999 4.806 93.863 3.378Q95.064 3.468 96.288 3.525Q97.512 3.582 98.555 3.626L98.555 0.000ZM87.131 16.320Q84.955 16.206 82.688 15.708Q80.421 15.210 78.574 14.258Q76.727 13.306 75.605 11.810Q74.483 10.314 74.528 8.250Q74.641 5.938 76.047 4.828Q77.452 3.718 79.356 3.718Q81.736 3.718 83.572 4.647Q85.408 5.576 87.131 7.208Q87.085 7.934 87.085 8.738Q87.085 9.542 87.085 10.404Q87.085 11.038 87.108 12.682Q87.131 14.326 87.131 16.320ZM108.143 -18.428Q105.876 -18.428 104.278 -17.238Q102.680 -16.048 102.680 -13.804Q102.680 -12.376 103.621 -11.231Q104.561 -10.086 106.057 -10.064Q107.644 -9.996 108.381 -11.073Q109.117 -12.150 109.117 -13.306Q109.117 -13.510 109.117 -13.736Q109.117 -13.962 109.049 -14.234Q109.231 -14.326 109.661 -14.302Q110.409 -14.234 111.282 -13.475Q112.155 -12.716 112.880 -11.356Q113.719 -9.838 114.750 -7.197Q115.781 -4.556 116.960 -1.088L106.307 21.238Q104.493 25.046 103.779 27.188Q103.065 29.330 102.816 30.554L99.597 30.418L99.597 34.000L114.625 34.000L114.625 31.190L114.444 31.190Q111.701 30.962 111.441 29.126Q111.180 27.290 112.676 24.072L120.201 7.616Q121.471 11.106 122.786 15.175Q124.100 19.244 125.551 23.506Q126.004 24.798 126.537 26.260Q127.069 27.722 127.636 28.957Q128.203 30.192 128.724 30.668L124.304 30.418L124.304 34.000L135.456 34.000L135.456 31.190Q133.076 30.396 131.773 28.220Q130.469 26.044 129.245 22.712L120.745 -1.202Q118.751 -6.846 117.051 -10.688Q115.351 -14.530 113.288 -16.479Q111.225 -18.428 108.143 -18.428Z" fill="#FFFFFF"/></svg>